<?xml version="1.0" standalone="no"?>
<!DOCTYPE svg PUBLIC "-//W3C//DTD SVG 20010904//EN"
 "http://www.w3.org/TR/2001/REC-SVG-20010904/DTD/svg10.dtd">
<svg version="1.0" xmlns="http://www.w3.org/2000/svg"
 width="64.000000pt" height="64.000000pt" viewBox="0 0 64.000000 64.000000"
 preserveAspectRatio="xMidYMid meet">

<g transform="translate(0.000000,64.000000) scale(0.100000,-0.100000)"
fill="#000000" stroke="none">
<path d="M280 605 c-30 -31 -39 -34 -94 -37 -53 -3 -61 -6 -64 -24 -3 -18 3
-22 49 -27 28 -4 63 -14 78 -24 l26 -18 -30 -3 c-61 -7 -68 -24 -63 -153 4
-126 16 -159 64 -181 13 -6 24 -19 24 -30 0 -10 4 -18 9 -18 6 0 11 -19 13
-42 3 -42 4 -43 38 -43 34 0 35 1 38 43 2 23 7 42 13 42 5 0 9 8 9 18 0 10 11
25 25 32 46 25 65 84 65 203 0 117 -5 127 -67 127 l-28 1 23 19 c12 10 47 22
78 26 49 6 55 9 52 28 -3 18 -10 21 -65 24 -57 3 -63 5 -88 37 -33 45 -62 45
-105 0z"/>
</g>
</svg>
